<svg width="725" height="725" viewBox="0 0 725 725" fill="none" xmlns="http://www.w3.org/2000/svg">
<path fill-rule="evenodd" clip-rule="evenodd" d="M158 118C75.1573 118 8 185.157 8 268V457C8 539.843 75.1573 607 158 607H566.551C649.394 607 716.551 539.843 716.551 457V268C716.551 185.157 649.394 118 566.551 118H158ZM212 212H278.667V512.002H212V212ZM512.001 320.334C512.001 380.165 463.498 428.668 403.667 428.668C343.836 428.668 295.333 380.165 295.333 320.334C295.333 260.503 343.836 212 403.667 212C463.498 212 512.001 260.503 512.001 320.334Z" fill="#F1465A"/>
</svg>
